<svg xmlns="http://www.w3.org/2000/svg" width="456.877" height="520" viewBox="0 0 456.877 520">
  <g id="humaaans_sitting-8" data-name="humaaans/sitting-8" transform="translate(-9 -48.38)">
    <g id="A-Human_Sitting" data-name="A-Human/Sitting" transform="translate(465.877 568.38) rotate(180)">
      <g id="Head_Front_Short-Beard" data-name="Head/Front/Short-Beard" transform="translate(125.874 396.271)">
        <g id="Head" transform="translate(0.183 0)">
          <path id="Path_31" data-name="Path 31" d="M13.634,63.547C6.03,72.473.884,83.411,1.744,95.667c2.478,35.314,51.636,27.546,61.2,9.722s8.426-63.035-3.932-66.22C54.082,37.9,43.582,41.011,32.9,47.452L39.6,0H0Z" fill="#c4a28e" fill-rule="evenodd"/>
        </g>
        <path id="Hair" d="M35.06,54.178Q37.334,22.5,47.091,22.5c9.757,0,18.035,6.194,22.316,6.194,3.121,0,2.424-3.905.355-6.8-1.707-2.389-10.018-4.692-10.018-8.4s6.567-.838,6.567-3.035C66.311,6.831,67.465,0,61.159,0,54.777,0,36.478,2.326,33.342,11.8q-3.036,9.17-3.926,38a10,10,0,0,1-1.181.07,9.9,9.9,0,0,1-6.918-16.984c-2.291-3.234-4.858-6.612-7.8-10.1C2.465,29.42-5.737,48.832,5.069,67.48,8.055,76.615,14.817,81.494,22.8,83.76a28.724,28.724,0,0,0,18.853,1.389C52.767,84.2,62.69,80.808,65.5,78.8c0-10.52-2.038-13.641-19.449-13.366C41.774,63.17,38.486,59.279,35.06,54.178Z" transform="translate(0 37.589)" fill="#191847" fill-rule="evenodd"/>
      </g>
      <g id="Bottom_Sitting_Baggy-Pants" data-name="Bottom/Sitting/Baggy-Pants" transform="translate(0 0)">
        <g id="Objects_Seat_Cube-2" data-name="Objects/Seat/Cube-2" transform="translate(0 9.324)">
          <path id="Seat" d="M24.864,192.7h178.71a24.864,24.864,0,0,0,24.864-24.864V24.864A24.864,24.864,0,0,0,203.574,0H24.864A24.864,24.864,0,0,0,0,24.864V167.832A24.864,24.864,0,0,0,24.864,192.7Zm24.864-43.512a6.216,6.216,0,0,1-6.216-6.216V49.728a6.216,6.216,0,0,1,6.216-6.216H178.71a6.216,6.216,0,0,1,6.216,6.216v93.24a6.216,6.216,0,0,1-6.216,6.216Z" transform="translate(0 0)" fill="#c5cfd6" fill-rule="evenodd"/>
        </g>
        <path id="LegLower" d="M102.811,0Q56.853,56.121,40.619,83.211c-18.532,30.923-33.7,58.439-38.485,68.95-11.414,25.065,26.276,36.8,34.807,25.11q19.366-26.542,82.718-167.042Z" transform="translate(279.721 17.094)" fill="#b28b67" fill-rule="evenodd"/>
        <path id="LegLower-2" data-name="LegLower" d="M58.675,0,1.655,143.533c-12.2,26.165,46.7,43.364,55.661,31.187,20.348-27.645,68.711-136.7,74.774-144.936Z" transform="translate(261.073 27.972)" fill="#2f3676" fill-rule="evenodd"/>
        <g id="Lower-Leg" transform="matrix(0.777, -0.629, 0.629, 0.777, 160.489, 52.08)">
          <path id="LegLower-3" data-name="LegLower" d="M2.8,8.288C1.24,27.869-1.667,95.656,1.241,127.032c.836,9.016,1.716,17.733,2.6,25.911,2.637,24.307,47.707,23.538,44.127.446C39.059,95.88,23.37,15.284,22.246,8.32,20.67-1.441,3.787-4.019,2.8,8.288Z" transform="translate(0 0)" fill="#c4a28e" fill-rule="evenodd"/>
        </g>
        <g id="Accessories_Shoe_Flat-Sneaker" data-name="Accessories/Shoe/Flat-Sneaker" transform="matrix(0.866, -0.5, 0.5, 0.866, 156.88, 45.733)">
          <path id="shoe" d="M2.608,22.686Q0,15.724,0,12.268A77.976,77.976,0,0,1,1.4,0H89.049q3.417,11.295-3.944,12.2t-12.23,1.626L32.137,31.983a1.554,1.554,0,0,1-2.052-.787l-.017-.04L27.449,24.8q-6.814-3.179-11.075-3.179-3.461,0-9.561,2.8h0a3.108,3.108,0,0,1-4.12-1.53Q2.647,22.79,2.608,22.686Z" transform="translate(0 0)" fill="#e4e4e4" fill-rule="evenodd"/>
        </g>
        <g id="Accessories_Shoe_Flat-Sneaker-2" data-name="Accessories/Shoe/Flat-Sneaker" transform="translate(366.745 0)">
          <path id="shoe-2" data-name="shoe" d="M2.608,22.685Q0,15.724,0,12.268A77.976,77.976,0,0,1,1.4,0H89.049Q92.466,11.295,85.1,12.2t-12.23,1.626L32.137,31.983a1.554,1.554,0,0,1-2.052-.787l-.017-.04L27.449,24.8q-6.814-3.179-11.075-3.179-3.461,0-9.561,2.8h0a3.108,3.108,0,0,1-4.12-1.53Q2.647,22.789,2.608,22.685Z" fill="#e4e4e4" fill-rule="evenodd"/>
        </g>
        <path id="Leg-and-Butt" d="M148.716,121.931Q77.628,133.512,53.485,137.77c-45.879,8.09-59.258,32.778-51.347,86.645H86.669q16.78-4.846,140.223-59.937c14.807-7.35,12.049-29.022,9.343-36.162Q236.068,127.878,161.351,0L92.2,44.052l56.646,72.689Q151.09,121.26,148.716,121.931Z" transform="translate(93.494 42.404)" fill="#5c63ab" fill-rule="evenodd"/>
      </g>
      <g id="Body_Hoodie" data-name="Body/Hoodie" transform="translate(4.915 148.941)">
        <path id="Skin" d="M243.386,138.221l49.57-36.4q20.167-5.442,33.7-13.541c2.131-1.942,4.706-5.874-4.131-5.194s-18.162,1-19.382-2.017,4.128-6.619,1.663-10.685q-2.465-4.067-23.289,20.395l-49.087,20.355ZM53.062,136.965l32.475-.128Q55.459,39.742,53.062,33.8c-3.6-8.911,4.013-22.484,7.268-29.777-10.6-4.742-9.469,12.821-22.839,6.6C25.287,4.948,16-5.339,1.906,3.36c-1.733,1.07-3.633,5.1.957,8.244C14.3,19.444,30.773,33.166,33,37.682Q37.553,46.921,53.062,136.965Z" transform="translate(0 0)" fill="#c4a28e" fill-rule="evenodd"/>
        <path id="Coat-Back" d="M0,173.52l13.186,3.467c53.421-38.56,81.033-119.2,145.734-157.541L145.855,0C39.095,3.837,4.121,102.088,0,173.52Z" transform="translate(130.224 100.372) rotate(-5)" fill="#e87613" fill-rule="evenodd"/>
        <path id="Shirt" d="M0,0H118.9c5.433,0,4.409,7.845,3.624,11.8-9.064,45.688-44.448,94.938-44.448,159.974l-34.3,5.378C15.412,131.533,5.6,75.362,0,0Z" transform="translate(86.771 104.362)" fill="#dde3e9" fill-rule="evenodd"/>
        <path id="Coat-Front" d="M55.553,197.579q-7.472,2.148-11.833,10.018c-12.535,22.619-8.008,35.072,5.388,39.165s25.343-4.338,46.687-4.338a21.482,21.482,0,0,0,3.19-.218l10.736-.613Q155.926,85,135.207,32.634H41.624A319.2,319.2,0,0,0,25.707,0H.207Q-3.393,116.394,55.553,197.579Z" transform="translate(32.174 39.094)" fill="#ff9b21" fill-rule="evenodd"/>
        <path id="Shade" d="M20.378,53.617Q24.793,16.679,34.729,0H0Q9.7,22.622,20.378,53.617Z" transform="translate(73.798 71.728)" fill="rgba(0,0,0,0.1)" fill-rule="evenodd"/>
      </g>
    </g>
  </g>
</svg>
