<svg xmlns="http://www.w3.org/2000/svg" width="48.758" height="48.758" viewBox="0 0 48.758 48.758">
  <g id="Icon_ionic-ios-close-circle-outline" data-name="Icon ionic-ios-close-circle-outline" transform="translate(-3.375 -3.375)">
    <path id="Path_32" data-name="Path 32" d="M30.588,27.942l-6.177-6.177,6.177-6.177a1.873,1.873,0,1,0-2.649-2.649l-6.177,6.177L15.585,12.94a1.873,1.873,0,0,0-2.649,2.649l6.177,6.177-6.177,6.177a1.811,1.811,0,0,0,0,2.649,1.861,1.861,0,0,0,2.649,0l6.177-6.177,6.177,6.177a1.882,1.882,0,0,0,2.649,0A1.861,1.861,0,0,0,30.588,27.942Z" transform="translate(5.992 5.989)" fill="#e24727"/>
    <path id="Path_33" data-name="Path 33" d="M27.754,6.657A21.1,21.1,0,0,1,42.675,42.675,21.1,21.1,0,0,1,12.834,12.834,20.958,20.958,0,0,1,27.754,6.657m0-3.282A24.379,24.379,0,1,0,52.133,27.754,24.375,24.375,0,0,0,27.754,3.375Z" transform="translate(0 0)" fill="#e24727"/>
  </g>
</svg>
